<svg id="Layer_1" data-name="Layer 1" xmlns="http://www.w3.org/2000/svg" xmlns:xlink="http://www.w3.org/1999/xlink" viewBox="0 0 1920 1080"><defs><style>.cls-1{fill:#fafff7;}.cls-2{fill:url(#linear-gradient);}.cls-3{fill:#008c16;}.cls-4{fill:#00a2c8;}.cls-5{fill:url(#linear-gradient-2);}.cls-6{fill:#007da2;}.cls-7{fill:url(#linear-gradient-3);}.cls-8{fill:#00648b;}.cls-9{fill:url(#linear-gradient-4);}</style><linearGradient id="linear-gradient" x1="1632.68" y1="428.58" x2="1632.68" y2="549.97" gradientTransform="translate(-71.28 245.08) rotate(-11.33)" gradientUnits="userSpaceOnUse"><stop offset="0" stop-color="#dcf63d"/><stop offset="1" stop-color="#00852c"/></linearGradient><linearGradient id="linear-gradient-2" x1="1733.29" y1="367.66" x2="1733.29" y2="635.25" gradientTransform="matrix(1, 0, 0, 1, 0, 0)" xlink:href="#linear-gradient"/><linearGradient id="linear-gradient-3" x1="1372.84" y1="602.14" x2="1372.84" y2="961.68" gradientTransform="translate(-25.21 55.37) rotate(-2.84)" xlink:href="#linear-gradient"/><linearGradient id="linear-gradient-4" x1="1681.28" y1="641.51" x2="1681.28" y2="1138.15" gradientTransform="matrix(1, 0, 0, 1, 0, 0)" xlink:href="#linear-gradient"/></defs><title>background</title><path class="cls-1" d="M1215.23,105.83c42.63,2.66,70.08-34.53,130-14.22s81.25-22.34,131-10.16,75.16,38.59,65,73.13-91.41-27.42-133,3-80.23,54.84-128,22.34-89.38,20.31-113.75-20.31S1182.73,103.8,1215.23,105.83Z"/><path class="cls-1" d="M1920,314.68v165c-40.13-11-85.37-24.27-125.93-23.08a141.62,141.62,0,0,0-25.22,2.9,106.56,106.56,0,0,0-18.56,5.67q-3.27,1.33-6.43,2.92a89.17,89.17,0,0,0-8.33,4.71q-2.55,1.61-5,3.41l-1.1.81-5.55,4c-12.49,9.08-24.88,17.86-37.21,26.08-54.89,36.56-108.88,62-167.71,52.26-24.79-4.08-50.44-14.4-77.38-32.74-107.79-73.39-201.81,45.86-256.85-45.87s36.69-126.13,110.08-121.54c96.26,6,158.23-78,293.54-32.11q4.77,1.62,9.41,3a218.09,218.09,0,0,0,54.48,9.44c90.25,3.48,139.25-58.08,231.94-35.38Q1903.15,308.83,1920,314.68Z"/><path class="cls-1" d="M239.43,973.93c-75.28-4.7-123.75,61-229.55,25.11Q4.84,997.33,0,996V823.39c39.13-13,79.58-11.06,124.65,19.63,84.29,57.38,157.82-35.87,200.86,35.86S296.81,977.52,239.43,973.93Z"/><path class="cls-2" d="M1653.64,380.75a87.29,87.29,0,0,0,2.64-11.9c1.79-14.09-1.82-31.13-12.16-41.43-13.62-13.56-33-7.5-46.56,2.83a29.86,29.86,0,0,0-10.46,14.8,31.08,31.08,0,0,0-2.47,4.75,32.35,32.35,0,0,0-1.82,18.29,42.2,42.2,0,0,0,3.74,10.47c1.2,2.39,3.4,4.82,3.92,7.46.89,4.5-2.09,10.35-2.91,14.76a43.5,43.5,0,0,0,1,20.47c3.94,13.16,13.84,24.33,27.37,28,13,3.5,27.35.5,36.74-9.5s12.92-25.74,7.07-38.61c-1.93-4.24-7.27-8.78-7.87-13.46C1651.62,385.75,1653.18,382.43,1653.64,380.75Z"/><path class="cls-3" d="M1612.48,345.52c-.37,26.12,4.06,53,6.8,79q4.29,40.46,9.43,80.82c.76,6,10,4.12,9.18-1.84q-5.2-39.55-9.6-79.2-2.15-19.43-4.16-38.88c-1.37-13.38-1.93-27.15-4.46-40.36C1618.91,341.13,1612.54,341.35,1612.48,345.52Z"/><path class="cls-3" d="M1637.14,375.95c-5.11,11.34-10.63,22.36-16.76,33.15-5-4.49-9.58-9.51-15-13.39-2.32-1.65-5.69,1.21-4.23,3.74,4.35,7.53,11.27,13.5,17.06,19.91,1.94,2.15,5.8,2.1,7.37-.51a312.46,312.46,0,0,0,20.5-39.82C1648.45,373.38,1639.6,370.49,1637.14,375.95Z"/><path class="cls-4" d="M1786.16,404q-24.54,7.48-48.78,16.86-7.12,2.76-14.2,5.69-10.75,4.45-21.42,9.3-4.2,1.92-8.39,3.9-10,4.71-19.9,9.8-20,10.29-39.64,22.16-4.32,2.63-8.62,5.33a644.47,644.47,0,0,0-83.26,62.16l-23,20.22c-31.35,27.56-60.35,53-87.59,76.43q-19.56,16.86-38,32.38-6.45,5.41-12.76,10.68c-2.63,2.2-5.24,4.36-7.84,6.52-24.27,20.07-47.29,38.43-69.59,55.23-132.07,99.48-239.24,144.45-433.72,170-35.8,4.69-74.57,8.73-117,12.32-212.73,18-354.82,120.63-399.21,157.11H1920V375.93A782,782,0,0,0,1786.16,404Z"/><path class="cls-5" d="M1791.81,434.9c-4.3-32.53-11.77-66.44-40.47-86.29-30.94-21.4-62.41-3-73.73,29.47-11,31.59-5.51,71.05,1.55,102.92a238.49,238.49,0,0,0,22,59.31c5.6,20.18,14.78,39.66,31.1,49.23,13.92,8.16,32.13,6.42,43.52-5.37,12.25-12.69,13.73-33.44,16-50A367.65,367.65,0,0,0,1791.81,434.9Z"/><path class="cls-3" d="M1751.07,533.93c-5.66-50.38-9.86-102.4-21.16-151.88-1.32-5.78-10.81-4.62-10.46,1.41,3,51.07,11.92,102.12,17.27,153q8.06,76.68,13.56,153.6c.71,9.89,16.24,9.94,15.48,0Q1759.78,611.88,1751.07,533.93Z"/><path class="cls-3" d="M1754.37,456.45a275.65,275.65,0,0,1-12.82,25.16c-12.15-19.2-28-34.83-44.8-50.52-2.33-2.18-5.56,0-5.06,2.95,2,11.58,12.13,19.56,19.16,28.37,9.42,11.79,17,24.61,23.83,38,2.79,5.51,10.25,4.45,13.29,0a190.06,190.06,0,0,0,20.43-38.09C1771.54,454.33,1757.94,448.52,1754.37,456.45Z"/><path class="cls-6" d="M1837.63,602.59c-24.13,10-49.73,19.48-76.8,28.12q-7.32,2.36-14.8,4.6-23.69,7.15-48.78,13.38-9.8,2.43-19.8,4.68a1012.51,1012.51,0,0,1-148.77,22q-22.78,1.68-46.4,2.37-13,.38-25.73,1-32.37,1.53-62.62,4.45c-4.41.42-8.8.87-13.14,1.33-2.68.29-5.35.58-8,.89q-38.42,4.38-73.53,10.88c-201.2,37-326,122.8-429.78,214.31C803.92,968.38,746.76,1028.48,684,1080H1920V563.84C1894.82,577.17,1867.35,590.28,1837.63,602.59Z"/><path class="cls-7" d="M1463.8,744.59a72.91,72.91,0,0,0,1.42-49.13c-5.32-16.18-17-26.32-26.93-39.46-5.6-7.4-8.06-14.51-6.55-23.8,1.43-8.79,4.89-17.1,5.94-26,2.25-19-5.89-36.88-18.92-50.41-12.75-13.24-32.49-24.26-51.17-17.83-35.34,12.16-42.78,53.71-32.17,85.47,1.09,5.54,1.68,11.13.22,16.69-2.22,8.49-8.15,15.54-13.68,22.12-11.07,13.18-22.66,27.06-25.67,44.59a45.88,45.88,0,0,0,1.93,23.73c3.39,9.12,10,16.71,13,26,6,19-1.36,40.78-2.32,60.15-1.72,34.8,10.53,68.74,38.68,90.41,12.73,9.8,28.45,17.85,44.79,18.35,17.92.55,30.79-10.31,41-23.92,10.52-14,19.9-29.4,24.14-46.58,4.65-18.82.35-36.91-3-55.5-1.62-9-3-18.45-1.31-27.54C1454.95,762.23,1460.27,753.69,1463.8,744.59Z"/><path class="cls-3" d="M1387.33,594.68a3.44,3.44,0,0,0-6.87.34c-2,32.88-.21,65.93.59,98.83q1.23,50.66,1.82,101.34,1.23,100.05-.57,200.11c-.18,10,15.48,9.25,15.59-.77q1.09-100-.74-200-.93-49.36-2.77-98.69C1393.13,662.08,1392.45,628.07,1387.33,594.68Z"/><path class="cls-3" d="M1421.36,831.74c-9.62,7.89-19.26,19.5-30.07,26.34-8.87-5-17.1-13.34-24.87-19.46-8.25-6.49-16.38-13.12-25.35-18.6-2.38-1.45-5.6,1.91-3.75,4.14,7.78,9.36,16.83,17.49,25.65,25.85,6.9,6.54,15.58,19.17,24.18,23,7.44,3.34,12.09-2.23,17.61-6.93,8.86-7.56,17.85-15,26.51-22.79C1437.66,837.55,1428.11,826.2,1421.36,831.74Z"/><path class="cls-3" d="M1414.54,729c-8.33,4.57-21.22,16.5-31.34,13.81s-21.68-11.79-30.58-17.22c-2.9-1.77-6.1,2.78-3.41,4.9,7.21,5.7,14.14,11.76,21.1,17.76,4.29,3.7,9.87,11.13,16,12.15,4.84.81,9.42-2.4,13.39-4.68,7.81-4.49,15.65-9.06,23.19-14C1431.18,736.3,1423.05,724.28,1414.54,729Z"/><path class="cls-8" d="M1920,704.08v357l-92,13.68-35.36,5.26H1106c54.95-73.87,128.63-146.26,214.39-205.91q19.65-13.66,40.14-26.41,4.84-3,9.72-6,6.48-3.93,13-7.72,7.17-4.19,14.43-8.22,27.63-15.37,56.42-28.75,14.41-6.69,29.1-12.81,17.09-7.12,35.1-13.44c44.42-15.6,92.72-27.69,143-37.14q21.9-4.12,44.25-7.6c54.39-8.51,110.32-14.34,165.45-18.58Q1895.61,705.58,1920,704.08Z"/><path class="cls-9" d="M1819.06,893.28c-1.58,22.41,19.14,48.59,24.17,70.2,8.86,38,2.34,77.38-15.21,111.26-.92,1.77-1.86,3.52-2.84,5.26H1521.27a208.24,208.24,0,0,1-29.22-89c-3.08-32.9,2.31-65.92,14.59-96.47,8-19.83,27.32-44.38,27.39-66.2,0-12.8-8-26.2-11.35-38.47-1.67-6.14-3.18-12.56-4.4-19.08a176.36,176.36,0,0,1-3.28-33.32,154.19,154.19,0,0,1,25.59-83.68c2.34-3.53,4.86-7,7.53-10.27,5-6.26,10-12.65,14.4-19.35a141,141,0,0,1,56.7-49.57c26.23-12.83,55.52-22.35,84.63-25.72a187.83,187.83,0,0,1,34-1c5,.33,10,.89,14.91,1.69a133.88,133.88,0,0,1,34.89,10.54c19,8.78,36.07,22.54,49.94,42.44.54.77,1.07,1.54,1.6,2.33,19.77,29.56,29.67,65.7,31.72,102.55a277.87,277.87,0,0,1-13.69,102.22c-6.15,18.31-14.81,35.82-23.44,53.07C1830.11,870.17,1819.7,884.2,1819.06,893.28Z"/><path class="cls-3" d="M1708.54,664.39c-.17,20.49-1.34,41.07-3,61.66-3.63,43.77-9.69,87.62-13.85,131q-3.24,33.69-6.33,67.41-3.57,38.76-7,77.54-1.82,20.22-3.58,40.45-1.65,18.8-3.25,37.59h-43.1q2-22.5,4.1-45,1-11,2-22c1.88-21.85,3.6-43.87,5.31-66,5.52-71.09,10.95-143.06,21.49-213.31,3.73-24.87,8.1-49.53,13.33-73.86a16,16,0,0,1,2.87-6.42c4.54-6,12.89-7.24,19.8-4.68C1703.53,651,1708.61,656.5,1708.54,664.39Z"/><path class="cls-3" d="M1761.27,824.91C1726.81,873.05,1690.73,919.36,1652,964c-19.17-25.64-35.84-53.35-57.66-76.58-9.29-9.89-27.7.3-23.24,13.53,13.25,39.22,40,73.55,61,108.89,7.05,11.84,25.1,15.21,34.91,4.5,48-52.41,93-108,133-166.75C1816.46,823.46,1777.88,801.71,1761.27,824.91Z"/><path class="cls-1" d="M312.26,196.12c55.2,3.45,90.73-44.71,168.31-18.41s105.19-28.93,169.62-13.15,97.3,50,84.15,94.67S616,223.73,562.09,263.18s-103.88,71-165.68,28.93-115.71,26.3-147.27-26.3S270.18,193.49,312.26,196.12Z"/><path class="cls-1" d="M276.64,47.83C261.88,98,143.78,8,83.26,52.26,55.14,72.83,28,91.49,0,100.84V0H273.91C280.65,14.26,281.79,30.33,276.64,47.83Z"/></svg>