<svg xmlns="http://www.w3.org/2000/svg" xmlns:xlink="http://www.w3.org/1999/xlink" viewBox="0 0 523.69 523.69"><defs><style>.cls-1{fill:url(#linear-gradient);}</style><linearGradient id="linear-gradient" y1="261.84" x2="523.69" y2="261.84" gradientUnits="userSpaceOnUse"><stop offset="0" stop-color="#dcf63d"/><stop offset="1" stop-color="#00852c"/></linearGradient></defs><title>logo</title><g id="Layer_2" data-name="Layer 2"><g id="Layer_1-2" data-name="Layer 1"><path class="cls-1" d="M523.52,47.51A43.73,43.73,0,0,0,476.17.17,612.75,612.75,0,0,0,97.38,177.08c-6.2,6.2-12.33,12.59-18.21,19C8,273.5,22.86,363.5,69.06,422.4L0,491.46l32.23,32.23,69.06-69.06c58.9,46.2,148.9,61,226.32-10.11,6.4-5.88,12.79-12,19-18.21A612.75,612.75,0,0,0,523.52,47.51ZM386,306.16l-145,8.74,232.1-232.1A567.09,567.09,0,0,1,386,306.16ZM440.88,50.57,301.25,190.21l6.09-101A565.91,565.91,0,0,1,440.88,50.57ZM112.73,226.92c5.45-5.93,11.12-11.85,16.87-17.6A566.41,566.41,0,0,1,260.31,112L252.66,238.8,101.56,389.9C69.19,345.63,61.45,282.73,112.73,226.92Zm184,184c-55.81,51.28-118.71,43.54-163,11.17l58.63-58.63L350.71,354c-11.45,13.89-23.53,27.32-36.34,40.13C308.62,399.83,302.7,405.51,296.77,411Z"/></g></g></svg>